<svg id="Layer_1" data-name="Layer 1" xmlns="http://www.w3.org/2000/svg" viewBox="0 0 129.34 29.05"><defs><style>.cls-1{fill:#fff;}.cls-1,.cls-2,.cls-3{fill-rule:evenodd;}.cls-2{fill:#ed3305;}</style></defs><title>logo</title><g id="Page-1"><g id="logo"><g id="Group-132"><path id="Fill-110" class="cls-1" d="M-14.52-45.27A7,7,0,0,0-15-48a4.2,4.2,0,0,0-2.19-2.4,4.52,4.52,0,0,0-3.15-.2,4.61,4.61,0,0,0-3.17,3.82,8,8,0,0,0,.13,3.56,4.57,4.57,0,0,0,4.79,3.6,3.92,3.92,0,0,0,2.93-1.65,6.3,6.3,0,0,0,1.1-4m-9.07,8.65v.49a.68.68,0,0,1-.73.71h-3.36a.86.86,0,0,1-1-.93,2.61,2.61,0,0,1,0-.28c0-8.75,0-17.3,0-26,0-1,.49-1.22,1.25-1.26.92-.05,1.84,0,2.76,0,.65,0,1.07.25,1.06,1.06,0,2.93,0,5.67,0,8.6v.44c.61-.32,1.2-.66,1.82-.94A6.71,6.71,0,0,1-19-55.44a14.78,14.78,0,0,1,2.31.11,8.16,8.16,0,0,1,4.14,1.9A9.31,9.31,0,0,1-9.7-48.66,11.12,11.12,0,0,1-9.37-44,29.24,29.24,0,0,1-10-41a8.38,8.38,0,0,1-1.78,3.17A7.42,7.42,0,0,1-14-36a10.67,10.67,0,0,1-2.62.89,10.86,10.86,0,0,1-3,.1,6.72,6.72,0,0,1-3.8-1.54,1.74,1.74,0,0,0-.16-.1" transform="translate(46.9 63.98)"/><path id="Fill-112" class="cls-1" d="M74.88-46.41c.88,1.15,1.71,2.21,2.52,3.28.93,1.25,1.83,2.53,2.76,3.78.63.84,1.29,1.67,1.93,2.5.24.31.48.6.27,1s-.58.49-1,.48c-1.3,0-2.59,0-3.89,0a1.11,1.11,0,0,1-1-.49q-2.43-3.3-4.85-6.62l-.3-.39c-.58.59-1.11,1.11-1.62,1.65a.69.69,0,0,0-.1.43v4.63a.69.69,0,0,1-.79.78c-1.08,0-2.16,0-3.23,0a.92.92,0,0,1-.94-.86c0-.13,0-.25,0-.38q0-13.1,0-26.19c0-.81.32-1.27,1.2-1.23s2,0,3,0c.59,0,.82.23.82.84v15.18l1-1C72.09-50.4,73.54-52,75-53.46c.36-.37.67-.78,1-1.12a1.25,1.25,0,0,1,.73-.3c1.54,0,3.08,0,4.63,0a.73.73,0,0,1,.81.46.76.76,0,0,1-.23.91c-2.22,2.21-4.43,4.53-6.65,6.75a4.76,4.76,0,0,1-.44.36" transform="translate(46.9 63.98)"/><path id="Fill-114" class="cls-1" d="M49.2-53.74c.46-.28.9-.58,1.37-.82a7.35,7.35,0,0,1,4.06-.77,6.79,6.79,0,0,1,4.3,1.81,7.22,7.22,0,0,1,1.82,3.09,11,11,0,0,1,.37,3.28c0,3.66,0,7.33,0,11,0,.6-.23.83-.83.83H57.2c-.83,0-1.13-.3-1.14-1.14V-44.7c0-.92,0-1.84,0-2.76a3,3,0,0,0-3.12-3.13,3.24,3.24,0,0,0-2.76,1.09,3.3,3.3,0,0,0-.85,2q-.06,5.56-.09,11.11c0,.67-.31,1.09-1,1-1-.06-2.09,0-3.13,0-.67,0-.91-.24-.92-.92V-53.78c0-.8.21-1,1-1s1.81,0,2.72,0,1.06.18,1.28,1" transform="translate(46.9 63.98)"/><path id="Fill-116" class="cls-1" d="M9.46-50.2H1.92C.83-50.2.61-50.57.63-51.47s0-1.65,0-2.48a.92.92,0,0,1,1-1q6.84,0,13.66,0c.79,0,1,.23,1,.87a22.8,22.8,0,0,1-.08,3.2c0,.29-.32.57-.53.82-1.06,1.3-2.12,2.59-3.2,3.87-.54.65-1.12,1.26-1.66,1.91C10-43.23,9.07-42.13,8.17-41c-.22.26-.48.5-.83.85h7.8c1.09,0,1.4.31,1.4,1.38v2.48a.84.84,0,0,1-.92.91H1.4a.86.86,0,0,1-.94-.89c0-.93,0-1.87,0-2.8a1.44,1.44,0,0,1,.35-.82c1-1.28,2.08-2.54,3.13-3.8.73-.88,1.48-1.73,2.22-2.6l2.27-2.73c.3-.36.63-.71,1-1.14" transform="translate(46.9 63.98)"/><path id="Fill-118" class="cls-2" d="M-37.89-50.11H-45.7a1,1,0,0,1-1.09-1.06c0-.79,0-1.59,0-2.38,0-1.11.37-1.29,1.31-1.32s1.84,0,2.76,0h9.92a9.53,9.53,0,0,1,1.19.09c.41.06.5.44.51.73a22.63,22.63,0,0,1-.1,3.19c-.06.46-.51.88-.83,1.28-1.13,1.37-2.29,2.73-3.44,4.09l-3.63,4.3c-.3.36-.59.73-.95,1.19h8.13a.9.9,0,0,1,1,1q0,1.38,0,2.76a.82.82,0,0,1-.9.9H-46c-.64,0-.88-.25-.88-.9,0-.89,0-1.78,0-2.67a1.8,1.8,0,0,1,.4-1c1-1.26,2-2.5,3.07-3.74.73-.87,1.48-1.73,2.21-2.6s1.51-1.82,2.28-2.72c.3-.36.62-.71,1-1.17" transform="translate(46.9 63.98)"/><path id="Fill-120" class="cls-1" d="M23.84-49.63c0,4.41,0,8.82,0,13.23,0,.75-.3,1.13-1.06,1.09-1-.06-2.09,0-3.13,0-.59,0-.84-.24-.86-.83a2.72,2.72,0,0,1,0-.28q0-13.22,0-26.43a1,1,0,0,1,1.1-1.1c1,.06,2,0,3,0a.85.85,0,0,1,.93.94v13.38Z" transform="translate(46.9 63.98)"/><path id="Fill-122" class="cls-1" d="M-1.89-45.1v8.88a.71.71,0,0,1-.78.8H-6a.85.85,0,0,1-.9-.85c0-.11,0-.22,0-.33V-53.8c0-.86.32-1.17,1.19-1.17h2.8c.79,0,1.06.26,1.06,1Z" transform="translate(46.9 63.98)"/><path id="Fill-124" class="cls-1" d="M-4.39-63.94a3.24,3.24,0,0,1,3.32,3.3A3.29,3.29,0,0,1-4.4-57.31a3.28,3.28,0,0,1-3.3-3.47,3.31,3.31,0,0,1,3.31-3.16" transform="translate(46.9 63.98)"/><path id="Fill-126" class="cls-2" d="M26.56-54.28c0-.78,0-1.55,0-2.32a7.22,7.22,0,0,1,1.37-4.13,7.43,7.43,0,0,1,2.28-2.15,7.19,7.19,0,0,1,1.6-.72A7.44,7.44,0,0,1,34.33-64a6.55,6.55,0,0,1,1.52.27,7.47,7.47,0,0,1,2.29,1.06,7.05,7.05,0,0,1,2.68,3.16,6.13,6.13,0,0,1,.49,1.89c0,.4.1.8.11,1.2,0,.74.06,1.48.07,2.22q0,1.34,0,2.67a1,1,0,0,1-.64,1,.58.58,0,0,1-.26,0H38.2a.81.81,0,0,1-.83-.7c0-.34-.06-.69-.07-1,0-1.39-.1-2.78-.08-4.17A3.4,3.4,0,0,0,36.1-58.9a2.88,2.88,0,0,0-2.22-.78,3.17,3.17,0,0,0-2.23,1,2.59,2.59,0,0,0-.81,1.5A10.16,10.16,0,0,0,30.76-56c0,1.52,0,3,0,4.55a1,1,0,0,1-1,1c-.75,0-1.5,0-2.25,0a.81.81,0,0,1-.85-.69c0-.47-.07-.94-.08-1.41s0-1.16,0-1.74" transform="translate(46.9 63.98)"/><path id="Fill-128" class="cls-2" d="M26.56-45.1c0-.89,0-1.79,0-2.68a1,1,0,0,1,1-1c.76,0,1.52,0,2.27,0a.84.84,0,0,1,.87.72c0,.09,0,.17,0,.26,0,1.25.07,2.51.09,3.77,0,.42,0,.84,0,1.26a2.89,2.89,0,0,0,1,2.3,3.09,3.09,0,0,0,2.8.82A3.08,3.08,0,0,0,37-41.57,3.71,3.71,0,0,0,37.3-43q0-2.37,0-4.74a1,1,0,0,1,.65-1,.59.59,0,0,1,.23,0c.82,0,1.63,0,2.45,0a.77.77,0,0,1,.78.67c0,.45.06.9.07,1.36,0,1.15,0,2.3,0,3.46a14,14,0,0,1-.1,1.71A6.55,6.55,0,0,1,40.44-39a8,8,0,0,1-1.72,2,7.71,7.71,0,0,1-2.1,1.21,7,7,0,0,1-3.23.43,9.57,9.57,0,0,1-1.57-.34,6.31,6.31,0,0,1-1.95-.91,6.83,6.83,0,0,1-2.47-2.83,11.65,11.65,0,0,1-.62-1.71,7,7,0,0,1-.21-1.51c0-.81,0-1.62,0-2.44" transform="translate(46.9 63.98)"/><path id="Fill-130" class="cls-2" d="M31.88-51.19c0-.73,0-1.47,0-2.21A1,1,0,0,1,33-54.46c.71,0,1.43,0,2.15,0s1,.36,1,1c0,.95,0,1.89,0,2.84l0,5a1,1,0,0,1-.66,1,.7.7,0,0,1-.25.05H32.79a.81.81,0,0,1-.83-.7,3.44,3.44,0,0,1-.05-.45v-2.69c0-1,0-1.91,0-2.87h0" transform="translate(46.9 63.98)"/></g><path class="cls-3" d="M-14.52-45.27A7,7,0,0,0-15-48a4.2,4.2,0,0,0-2.19-2.4,4.52,4.52,0,0,0-3.15-.2,4.61,4.61,0,0,0-3.17,3.82,8,8,0,0,0,.13,3.56,4.57,4.57,0,0,0,4.79,3.6,3.92,3.92,0,0,0,2.93-1.65,6.3,6.3,0,0,0,1.1-4m-9.07,8.65v.49a.68.68,0,0,1-.73.71h-3.36a.86.86,0,0,1-1-.93,2.61,2.61,0,0,1,0-.28c0-8.75,0-17.3,0-26,0-1,.49-1.22,1.25-1.26.92-.05,1.84,0,2.76,0,.65,0,1.07.25,1.06,1.06,0,2.93,0,5.67,0,8.6v.44c.61-.32,1.2-.66,1.82-.94A6.71,6.71,0,0,1-19-55.44a14.78,14.78,0,0,1,2.31.11,8.16,8.16,0,0,1,4.14,1.9A9.31,9.31,0,0,1-9.7-48.66,11.12,11.12,0,0,1-9.37-44,29.24,29.24,0,0,1-10-41a8.38,8.38,0,0,1-1.78,3.17A7.42,7.42,0,0,1-14-36a10.67,10.67,0,0,1-2.62.89,10.86,10.86,0,0,1-3,.1,6.72,6.72,0,0,1-3.8-1.54,1.74,1.74,0,0,0-.16-.1" transform="translate(46.9 63.98)"/><path class="cls-3" d="M74.88-46.41c.88,1.15,1.71,2.21,2.52,3.28.93,1.25,1.83,2.53,2.76,3.78.63.84,1.29,1.67,1.93,2.5.24.31.48.6.27,1s-.58.49-1,.48c-1.3,0-2.59,0-3.89,0a1.11,1.11,0,0,1-1-.49q-2.43-3.3-4.85-6.62l-.3-.39c-.58.59-1.11,1.11-1.62,1.65a.69.69,0,0,0-.1.43v4.63a.69.69,0,0,1-.79.78c-1.08,0-2.16,0-3.23,0a.92.92,0,0,1-.94-.86c0-.13,0-.25,0-.38q0-13.1,0-26.19c0-.81.32-1.27,1.2-1.23s2,0,3,0c.59,0,.82.23.82.84v15.18l1-1C72.09-50.4,73.54-52,75-53.46c.36-.37.67-.78,1-1.12a1.25,1.25,0,0,1,.73-.3c1.54,0,3.08,0,4.63,0a.73.73,0,0,1,.81.46.76.76,0,0,1-.23.91c-2.22,2.21-4.43,4.53-6.65,6.75a4.76,4.76,0,0,1-.44.36" transform="translate(46.9 63.98)"/><path class="cls-3" d="M49.2-53.74c.46-.28.9-.58,1.37-.82a7.35,7.35,0,0,1,4.06-.77,6.79,6.79,0,0,1,4.3,1.81,7.22,7.22,0,0,1,1.82,3.09,11,11,0,0,1,.37,3.28c0,3.66,0,7.33,0,11,0,.6-.23.83-.83.83H57.2c-.83,0-1.13-.3-1.14-1.14V-44.7c0-.92,0-1.84,0-2.76a3,3,0,0,0-3.12-3.13,3.24,3.24,0,0,0-2.76,1.09,3.3,3.3,0,0,0-.85,2q-.06,5.56-.09,11.11c0,.67-.31,1.09-1,1-1-.06-2.09,0-3.13,0-.67,0-.91-.24-.92-.92V-53.78c0-.8.21-1,1-1s1.81,0,2.72,0,1.06.18,1.28,1" transform="translate(46.9 63.98)"/><path class="cls-3" d="M9.46-50.2H1.92C.83-50.2.61-50.57.63-51.47s0-1.65,0-2.48a.92.92,0,0,1,1-1q6.84,0,13.66,0c.79,0,1,.23,1,.87a22.8,22.8,0,0,1-.08,3.2c0,.29-.32.57-.53.82-1.06,1.3-2.12,2.59-3.2,3.87-.54.65-1.12,1.26-1.66,1.91C10-43.23,9.07-42.13,8.17-41c-.22.26-.48.5-.83.85h7.8c1.09,0,1.4.31,1.4,1.38v2.48a.84.84,0,0,1-.92.91H1.4a.86.86,0,0,1-.94-.89c0-.93,0-1.87,0-2.8a1.44,1.44,0,0,1,.35-.82c1-1.28,2.08-2.54,3.13-3.8.73-.88,1.48-1.73,2.22-2.6l2.27-2.73c.3-.36.63-.71,1-1.14" transform="translate(46.9 63.98)"/><path class="cls-2" d="M-37.89-50.11H-45.7a1,1,0,0,1-1.09-1.06c0-.79,0-1.59,0-2.38,0-1.11.37-1.29,1.31-1.32s1.84,0,2.76,0h9.92a9.53,9.53,0,0,1,1.19.09c.41.06.5.44.51.73a22.63,22.63,0,0,1-.1,3.19c-.06.46-.51.88-.83,1.28-1.13,1.37-2.29,2.73-3.44,4.09l-3.63,4.3c-.3.36-.59.73-.95,1.19h8.13a.9.9,0,0,1,1,1q0,1.38,0,2.76a.82.82,0,0,1-.9.9H-46c-.64,0-.88-.25-.88-.9,0-.89,0-1.78,0-2.67a1.8,1.8,0,0,1,.4-1c1-1.26,2-2.5,3.07-3.74.73-.87,1.48-1.73,2.21-2.6s1.51-1.82,2.28-2.72c.3-.36.62-.71,1-1.17" transform="translate(46.9 63.98)"/><path class="cls-3" d="M23.84-49.63c0,4.41,0,8.82,0,13.23,0,.75-.3,1.13-1.06,1.09-1-.06-2.09,0-3.13,0-.59,0-.84-.24-.86-.83a2.72,2.72,0,0,1,0-.28q0-13.22,0-26.43a1,1,0,0,1,1.1-1.1c1,.06,2,0,3,0a.85.85,0,0,1,.93.94v13.38Z" transform="translate(46.9 63.98)"/><path class="cls-3" d="M-1.89-45.1v8.88a.71.71,0,0,1-.78.8H-6a.85.85,0,0,1-.9-.85c0-.11,0-.22,0-.33V-53.8c0-.86.32-1.17,1.19-1.17h2.8c.79,0,1.06.26,1.06,1Z" transform="translate(46.9 63.98)"/><path class="cls-3" d="M-4.39-63.94a3.24,3.24,0,0,1,3.32,3.3A3.29,3.29,0,0,1-4.4-57.31a3.28,3.28,0,0,1-3.3-3.47,3.31,3.31,0,0,1,3.31-3.16" transform="translate(46.9 63.98)"/><path class="cls-2" d="M26.56-54.28c0-.78,0-1.55,0-2.32a7.22,7.22,0,0,1,1.37-4.13,7.43,7.43,0,0,1,2.28-2.15,7.19,7.19,0,0,1,1.6-.72A7.44,7.44,0,0,1,34.33-64a6.55,6.55,0,0,1,1.52.27,7.47,7.47,0,0,1,2.29,1.06,7.05,7.05,0,0,1,2.68,3.16,6.13,6.13,0,0,1,.49,1.89c0,.4.1.8.11,1.2,0,.74.06,1.48.07,2.22q0,1.34,0,2.67a1,1,0,0,1-.64,1,.58.58,0,0,1-.26,0H38.2a.81.81,0,0,1-.83-.7c0-.34-.06-.69-.07-1,0-1.39-.1-2.78-.08-4.17A3.4,3.4,0,0,0,36.1-58.9a2.88,2.88,0,0,0-2.22-.78,3.17,3.17,0,0,0-2.23,1,2.59,2.59,0,0,0-.81,1.5A10.16,10.16,0,0,0,30.76-56c0,1.52,0,3,0,4.55a1,1,0,0,1-1,1c-.75,0-1.5,0-2.25,0a.81.81,0,0,1-.85-.69c0-.47-.07-.94-.08-1.41s0-1.16,0-1.74" transform="translate(46.9 63.98)"/><path class="cls-2" d="M26.56-45.1c0-.89,0-1.79,0-2.68a1,1,0,0,1,1-1c.76,0,1.52,0,2.27,0a.84.84,0,0,1,.87.72c0,.09,0,.17,0,.26,0,1.25.07,2.51.09,3.77,0,.42,0,.84,0,1.26a2.89,2.89,0,0,0,1,2.3,3.09,3.09,0,0,0,2.8.82A3.08,3.08,0,0,0,37-41.57,3.71,3.71,0,0,0,37.3-43q0-2.37,0-4.74a1,1,0,0,1,.65-1,.59.59,0,0,1,.23,0c.82,0,1.63,0,2.45,0a.77.77,0,0,1,.78.67c0,.45.06.9.07,1.36,0,1.15,0,2.3,0,3.46a14,14,0,0,1-.1,1.71A6.55,6.55,0,0,1,40.44-39a8,8,0,0,1-1.72,2,7.71,7.71,0,0,1-2.1,1.21,7,7,0,0,1-3.23.43,9.57,9.57,0,0,1-1.57-.34,6.31,6.31,0,0,1-1.95-.91,6.83,6.83,0,0,1-2.47-2.83,11.65,11.65,0,0,1-.62-1.71,7,7,0,0,1-.21-1.51c0-.81,0-1.62,0-2.44" transform="translate(46.9 63.98)"/><path class="cls-2" d="M31.88-51.19c0-.73,0-1.47,0-2.21A1,1,0,0,1,33-54.46c.71,0,1.43,0,2.15,0s1,.36,1,1c0,.95,0,1.89,0,2.84l0,5a1,1,0,0,1-.66,1,.7.7,0,0,1-.25.05H32.79a.81.81,0,0,1-.83-.7,3.44,3.44,0,0,1-.05-.45v-2.69c0-1,0-1.91,0-2.87h0" transform="translate(46.9 63.98)"/></g></g></svg>